<mxfile host="app.diagrams.net" agent="Mozilla/5.0 (Windows NT 10.0; Win64; x64) AppleWebKit/537.36 (KHTML, like Gecko) Chrome/131.0.0.0 Safari/537.36" version="25.0.3">
  <diagram id="C5RBs43oDa-KdzZeNtuy" name="Page-1">
    <mxGraphModel dx="1323" dy="700" grid="1" gridSize="10" guides="1" tooltips="1" connect="1" arrows="1" fold="1" page="1" pageScale="1" pageWidth="827" pageHeight="1169" math="0" shadow="0">
      <root>
        <mxCell id="WIyWlLk6GJQsqaUBKTNV-0" />
        <mxCell id="WIyWlLk6GJQsqaUBKTNV-1" parent="WIyWlLk6GJQsqaUBKTNV-0" />
        <mxCell id="SB-FFFIjVD-oxgu6gbSo-91" value="Employe" style="swimlane;fontStyle=1;align=center;verticalAlign=top;childLayout=stackLayout;horizontal=1;startSize=26;horizontalStack=0;resizeParent=1;resizeLast=0;collapsible=1;marginBottom=0;rounded=0;shadow=0;strokeWidth=1;fontSize=9;labelBackgroundColor=none;" vertex="1" parent="WIyWlLk6GJQsqaUBKTNV-1">
          <mxGeometry x="310" y="90" width="110" height="240" as="geometry">
            <mxRectangle x="230" y="140" width="160" height="26" as="alternateBounds" />
          </mxGeometry>
        </mxCell>
        <mxCell id="SB-FFFIjVD-oxgu6gbSo-92" value="id_employe" style="text;align=left;verticalAlign=top;spacingLeft=4;spacingRight=4;overflow=hidden;rotatable=0;points=[[0,0.5],[1,0.5]];portConstraint=eastwest;fontSize=9;fontStyle=7;labelBackgroundColor=none;fontColor=#BD146E;" vertex="1" parent="SB-FFFIjVD-oxgu6gbSo-91">
          <mxGeometry y="26" width="110" height="20" as="geometry" />
        </mxCell>
        <mxCell id="SB-FFFIjVD-oxgu6gbSo-93" value="nom " style="text;align=left;verticalAlign=top;spacingLeft=4;spacingRight=4;overflow=hidden;rotatable=0;points=[[0,0.5],[1,0.5]];portConstraint=eastwest;fontSize=8;labelBackgroundColor=none;" vertex="1" parent="SB-FFFIjVD-oxgu6gbSo-91">
          <mxGeometry y="46" width="110" height="20" as="geometry" />
        </mxCell>
        <mxCell id="SB-FFFIjVD-oxgu6gbSo-94" value="prénom" style="text;align=left;verticalAlign=top;spacingLeft=4;spacingRight=4;overflow=hidden;rotatable=0;points=[[0,0.5],[1,0.5]];portConstraint=eastwest;fontSize=9;labelBackgroundColor=none;" vertex="1" parent="SB-FFFIjVD-oxgu6gbSo-91">
          <mxGeometry y="66" width="110" height="20" as="geometry" />
        </mxCell>
        <mxCell id="SB-FFFIjVD-oxgu6gbSo-95" value="date_naissance" style="text;align=left;verticalAlign=top;spacingLeft=4;spacingRight=4;overflow=hidden;rotatable=0;points=[[0,0.5],[1,0.5]];portConstraint=eastwest;fontSize=9;labelBackgroundColor=none;" vertex="1" parent="SB-FFFIjVD-oxgu6gbSo-91">
          <mxGeometry y="86" width="110" height="20" as="geometry" />
        </mxCell>
        <mxCell id="SB-FFFIjVD-oxgu6gbSo-96" value="date_eumbuche" style="text;align=left;verticalAlign=top;spacingLeft=4;spacingRight=4;overflow=hidden;rotatable=0;points=[[0,0.5],[1,0.5]];portConstraint=eastwest;fontSize=9;labelBackgroundColor=none;" vertex="1" parent="SB-FFFIjVD-oxgu6gbSo-91">
          <mxGeometry y="106" width="110" height="20" as="geometry" />
        </mxCell>
        <mxCell id="SB-FFFIjVD-oxgu6gbSo-97" value="adresse" style="text;align=left;verticalAlign=top;spacingLeft=4;spacingRight=4;overflow=hidden;rotatable=0;points=[[0,0.5],[1,0.5]];portConstraint=eastwest;fontSize=9;labelBackgroundColor=none;" vertex="1" parent="SB-FFFIjVD-oxgu6gbSo-91">
          <mxGeometry y="126" width="110" height="24" as="geometry" />
        </mxCell>
        <mxCell id="SB-FFFIjVD-oxgu6gbSo-98" value="historique profissionnel" style="text;align=left;verticalAlign=top;spacingLeft=4;spacingRight=4;overflow=hidden;rotatable=0;points=[[0,0.5],[1,0.5]];portConstraint=eastwest;fontSize=9;labelBackgroundColor=none;" vertex="1" parent="SB-FFFIjVD-oxgu6gbSo-91">
          <mxGeometry y="150" width="110" height="20" as="geometry" />
        </mxCell>
        <mxCell id="SB-FFFIjVD-oxgu6gbSo-99" value="competence" style="text;align=left;verticalAlign=top;spacingLeft=4;spacingRight=4;overflow=hidden;rotatable=0;points=[[0,0.5],[1,0.5]];portConstraint=eastwest;fontSize=9;labelBackgroundColor=none;" vertex="1" parent="SB-FFFIjVD-oxgu6gbSo-91">
          <mxGeometry y="170" width="110" height="20" as="geometry" />
        </mxCell>
        <mxCell id="SB-FFFIjVD-oxgu6gbSo-100" value="formation " style="text;align=left;verticalAlign=top;spacingLeft=4;spacingRight=4;overflow=hidden;rotatable=0;points=[[0,0.5],[1,0.5]];portConstraint=eastwest;fontSize=9;labelBackgroundColor=none;" vertex="1" parent="SB-FFFIjVD-oxgu6gbSo-91">
          <mxGeometry y="190" width="110" height="20" as="geometry" />
        </mxCell>
        <mxCell id="SB-FFFIjVD-oxgu6gbSo-101" value="salaire" style="swimlane;fontStyle=1;align=center;verticalAlign=top;childLayout=stackLayout;horizontal=1;startSize=26;horizontalStack=0;resizeParent=1;resizeLast=0;collapsible=1;marginBottom=0;rounded=0;shadow=0;strokeWidth=1;fontSize=9;labelBackgroundColor=none;" vertex="1" parent="WIyWlLk6GJQsqaUBKTNV-1">
          <mxGeometry x="50" y="230" width="100" height="190" as="geometry">
            <mxRectangle x="130" y="380" width="160" height="26" as="alternateBounds" />
          </mxGeometry>
        </mxCell>
        <mxCell id="SB-FFFIjVD-oxgu6gbSo-102" value="id_salaire" style="text;align=left;verticalAlign=top;spacingLeft=4;spacingRight=4;overflow=hidden;rotatable=0;points=[[0,0.5],[1,0.5]];portConstraint=eastwest;fontSize=9;fontStyle=7;labelBackgroundColor=none;fontColor=#BD146E;" vertex="1" parent="SB-FFFIjVD-oxgu6gbSo-101">
          <mxGeometry y="26" width="100" height="20" as="geometry" />
        </mxCell>
        <mxCell id="SB-FFFIjVD-oxgu6gbSo-103" value="mois\année" style="text;align=left;verticalAlign=top;spacingLeft=4;spacingRight=4;overflow=hidden;rotatable=0;points=[[0,0.5],[1,0.5]];portConstraint=eastwest;fontSize=9;labelBackgroundColor=none;" vertex="1" parent="SB-FFFIjVD-oxgu6gbSo-101">
          <mxGeometry y="46" width="100" height="20" as="geometry" />
        </mxCell>
        <mxCell id="SB-FFFIjVD-oxgu6gbSo-104" value="salaire_base" style="text;align=left;verticalAlign=top;spacingLeft=4;spacingRight=4;overflow=hidden;rotatable=0;points=[[0,0.5],[1,0.5]];portConstraint=eastwest;fontSize=9;labelBackgroundColor=none;" vertex="1" parent="SB-FFFIjVD-oxgu6gbSo-101">
          <mxGeometry y="66" width="100" height="20" as="geometry" />
        </mxCell>
        <mxCell id="SB-FFFIjVD-oxgu6gbSo-105" value="primes" style="text;align=left;verticalAlign=top;spacingLeft=4;spacingRight=4;overflow=hidden;rotatable=0;points=[[0,0.5],[1,0.5]];portConstraint=eastwest;fontSize=9;labelBackgroundColor=none;" vertex="1" parent="SB-FFFIjVD-oxgu6gbSo-101">
          <mxGeometry y="86" width="100" height="20" as="geometry" />
        </mxCell>
        <mxCell id="SB-FFFIjVD-oxgu6gbSo-106" value="heure_supplimentaires" style="text;align=left;verticalAlign=top;spacingLeft=4;spacingRight=4;overflow=hidden;rotatable=0;points=[[0,0.5],[1,0.5]];portConstraint=eastwest;fontSize=9;labelBackgroundColor=none;" vertex="1" parent="SB-FFFIjVD-oxgu6gbSo-101">
          <mxGeometry y="106" width="100" height="20" as="geometry" />
        </mxCell>
        <mxCell id="SB-FFFIjVD-oxgu6gbSo-107" value="retenus" style="text;align=left;verticalAlign=top;spacingLeft=4;spacingRight=4;overflow=hidden;rotatable=0;points=[[0,0.5],[1,0.5]];portConstraint=eastwest;fontSize=9;labelBackgroundColor=none;" vertex="1" parent="SB-FFFIjVD-oxgu6gbSo-101">
          <mxGeometry y="126" width="100" height="20" as="geometry" />
        </mxCell>
        <mxCell id="SB-FFFIjVD-oxgu6gbSo-108" value="retenus" style="text;align=left;verticalAlign=top;spacingLeft=4;spacingRight=4;overflow=hidden;rotatable=0;points=[[0,0.5],[1,0.5]];portConstraint=eastwest;fontSize=9;labelBackgroundColor=none;" vertex="1" parent="SB-FFFIjVD-oxgu6gbSo-101">
          <mxGeometry y="146" width="100" height="20" as="geometry" />
        </mxCell>
        <mxCell id="SB-FFFIjVD-oxgu6gbSo-109" value="salaire_net" style="text;align=left;verticalAlign=top;spacingLeft=4;spacingRight=4;overflow=hidden;rotatable=0;points=[[0,0.5],[1,0.5]];portConstraint=eastwest;fontSize=9;labelBackgroundColor=none;" vertex="1" parent="SB-FFFIjVD-oxgu6gbSo-101">
          <mxGeometry y="166" width="100" height="20" as="geometry" />
        </mxCell>
        <mxCell id="SB-FFFIjVD-oxgu6gbSo-110" value="service" style="swimlane;fontStyle=0;align=center;verticalAlign=top;childLayout=stackLayout;horizontal=1;startSize=26;horizontalStack=0;resizeParent=1;resizeLast=0;collapsible=1;marginBottom=0;rounded=0;shadow=0;strokeWidth=1;labelBackgroundColor=none;" vertex="1" parent="WIyWlLk6GJQsqaUBKTNV-1">
          <mxGeometry x="140" y="460" width="120" height="90" as="geometry">
            <mxRectangle x="340" y="380" width="170" height="26" as="alternateBounds" />
          </mxGeometry>
        </mxCell>
        <mxCell id="SB-FFFIjVD-oxgu6gbSo-111" value="Id_service" style="text;align=left;verticalAlign=top;spacingLeft=4;spacingRight=4;overflow=hidden;rotatable=0;points=[[0,0.5],[1,0.5]];portConstraint=eastwest;fontSize=9;fontStyle=7;labelBackgroundColor=none;fontColor=#BD146E;" vertex="1" parent="SB-FFFIjVD-oxgu6gbSo-110">
          <mxGeometry y="26" width="120" height="20" as="geometry" />
        </mxCell>
        <mxCell id="SB-FFFIjVD-oxgu6gbSo-112" value="nom" style="text;align=left;verticalAlign=top;spacingLeft=4;spacingRight=4;overflow=hidden;rotatable=0;points=[[0,0.5],[1,0.5]];portConstraint=eastwest;fontSize=9;labelBackgroundColor=none;" vertex="1" parent="SB-FFFIjVD-oxgu6gbSo-110">
          <mxGeometry y="46" width="120" height="20" as="geometry" />
        </mxCell>
        <mxCell id="SB-FFFIjVD-oxgu6gbSo-113" value="description" style="text;align=left;verticalAlign=top;spacingLeft=4;spacingRight=4;overflow=hidden;rotatable=0;points=[[0,0.5],[1,0.5]];portConstraint=eastwest;fontSize=9;labelBackgroundColor=none;" vertex="1" parent="SB-FFFIjVD-oxgu6gbSo-110">
          <mxGeometry y="66" width="120" height="20" as="geometry" />
        </mxCell>
        <mxCell id="SB-FFFIjVD-oxgu6gbSo-114" value="congé" style="swimlane;fontStyle=0;align=center;verticalAlign=top;childLayout=stackLayout;horizontal=1;startSize=26;horizontalStack=0;resizeParent=1;resizeLast=0;collapsible=1;marginBottom=0;rounded=0;shadow=0;strokeWidth=1;labelBackgroundColor=none;" vertex="1" parent="WIyWlLk6GJQsqaUBKTNV-1">
          <mxGeometry x="315" y="470" width="90" height="140" as="geometry">
            <mxRectangle x="550" y="140" width="160" height="26" as="alternateBounds" />
          </mxGeometry>
        </mxCell>
        <mxCell id="SB-FFFIjVD-oxgu6gbSo-115" value="Id_congé" style="text;align=left;verticalAlign=top;spacingLeft=4;spacingRight=4;overflow=hidden;rotatable=0;points=[[0,0.5],[1,0.5]];portConstraint=eastwest;fontSize=9;labelBackgroundColor=none;" vertex="1" parent="SB-FFFIjVD-oxgu6gbSo-114">
          <mxGeometry y="26" width="90" height="20" as="geometry" />
        </mxCell>
        <mxCell id="SB-FFFIjVD-oxgu6gbSo-116" value="date_deb" style="text;align=left;verticalAlign=top;spacingLeft=4;spacingRight=4;overflow=hidden;rotatable=0;points=[[0,0.5],[1,0.5]];portConstraint=eastwest;fontSize=9;labelBackgroundColor=none;" vertex="1" parent="SB-FFFIjVD-oxgu6gbSo-114">
          <mxGeometry y="46" width="90" height="20" as="geometry" />
        </mxCell>
        <mxCell id="SB-FFFIjVD-oxgu6gbSo-117" value="date_fin" style="text;align=left;verticalAlign=top;spacingLeft=4;spacingRight=4;overflow=hidden;rotatable=0;points=[[0,0.5],[1,0.5]];portConstraint=eastwest;fontSize=9;labelBackgroundColor=none;" vertex="1" parent="SB-FFFIjVD-oxgu6gbSo-114">
          <mxGeometry y="66" width="90" height="20" as="geometry" />
        </mxCell>
        <mxCell id="SB-FFFIjVD-oxgu6gbSo-118" value="type_congé" style="text;align=left;verticalAlign=top;spacingLeft=4;spacingRight=4;overflow=hidden;rotatable=0;points=[[0,0.5],[1,0.5]];portConstraint=eastwest;fontSize=9;labelBackgroundColor=none;" vertex="1" parent="SB-FFFIjVD-oxgu6gbSo-114">
          <mxGeometry y="86" width="90" height="20" as="geometry" />
        </mxCell>
        <mxCell id="SB-FFFIjVD-oxgu6gbSo-119" value="solde_congé" style="text;align=left;verticalAlign=top;spacingLeft=4;spacingRight=4;overflow=hidden;rotatable=0;points=[[0,0.5],[1,0.5]];portConstraint=eastwest;fontSize=9;labelBackgroundColor=none;" vertex="1" parent="SB-FFFIjVD-oxgu6gbSo-114">
          <mxGeometry y="106" width="90" height="20" as="geometry" />
        </mxCell>
        <mxCell id="SB-FFFIjVD-oxgu6gbSo-120" value="Contrat" style="swimlane;fontStyle=1;align=center;verticalAlign=top;childLayout=stackLayout;horizontal=1;startSize=26;horizontalStack=0;resizeParent=1;resizeLast=0;collapsible=1;marginBottom=0;rounded=0;shadow=0;strokeWidth=1;labelBackgroundColor=none;" vertex="1" parent="WIyWlLk6GJQsqaUBKTNV-1">
          <mxGeometry x="520" y="460" width="110" height="160" as="geometry">
            <mxRectangle x="340" y="380" width="170" height="26" as="alternateBounds" />
          </mxGeometry>
        </mxCell>
        <mxCell id="SB-FFFIjVD-oxgu6gbSo-121" value="id_contart" style="text;align=left;verticalAlign=top;spacingLeft=4;spacingRight=4;overflow=hidden;rotatable=0;points=[[0,0.5],[1,0.5]];portConstraint=eastwest;fontSize=9;fontStyle=5;labelBackgroundColor=none;fontColor=#BD146E;" vertex="1" parent="SB-FFFIjVD-oxgu6gbSo-120">
          <mxGeometry y="26" width="110" height="20" as="geometry" />
        </mxCell>
        <mxCell id="SB-FFFIjVD-oxgu6gbSo-122" value="date_debut" style="text;align=left;verticalAlign=top;spacingLeft=4;spacingRight=4;overflow=hidden;rotatable=0;points=[[0,0.5],[1,0.5]];portConstraint=eastwest;fontSize=9;labelBackgroundColor=none;" vertex="1" parent="SB-FFFIjVD-oxgu6gbSo-120">
          <mxGeometry y="46" width="110" height="20" as="geometry" />
        </mxCell>
        <mxCell id="SB-FFFIjVD-oxgu6gbSo-123" value="type_contart&#xa;&#xa;date_fin &#xa;&#xa;salaire_monsuel&#xa;&#xa;salaire_quotidien&#xa;&#xa;" style="text;align=left;verticalAlign=top;spacingLeft=4;spacingRight=4;overflow=hidden;rotatable=0;points=[[0,0.5],[1,0.5]];portConstraint=eastwest;fontSize=9;labelBackgroundColor=none;" vertex="1" parent="SB-FFFIjVD-oxgu6gbSo-120">
          <mxGeometry y="66" width="110" height="94" as="geometry" />
        </mxCell>
        <mxCell id="SB-FFFIjVD-oxgu6gbSo-124" value="Evaluation" style="swimlane;fontStyle=0;align=center;verticalAlign=top;childLayout=stackLayout;horizontal=1;startSize=26;horizontalStack=0;resizeParent=1;resizeLast=0;collapsible=1;marginBottom=0;rounded=0;shadow=0;strokeWidth=1;labelBackgroundColor=none;" vertex="1" parent="WIyWlLk6GJQsqaUBKTNV-1">
          <mxGeometry x="590" y="226" width="90" height="154" as="geometry">
            <mxRectangle x="340" y="380" width="170" height="26" as="alternateBounds" />
          </mxGeometry>
        </mxCell>
        <mxCell id="SB-FFFIjVD-oxgu6gbSo-125" value="id_evaluation&#xa;&#xa;" style="text;align=left;verticalAlign=top;spacingLeft=4;spacingRight=4;overflow=hidden;rotatable=0;points=[[0,0.5],[1,0.5]];portConstraint=eastwest;fontSize=9;labelBackgroundColor=none;fontColor=#da107c;fontStyle=5" vertex="1" parent="SB-FFFIjVD-oxgu6gbSo-124">
          <mxGeometry y="26" width="90" height="24" as="geometry" />
        </mxCell>
        <mxCell id="SB-FFFIjVD-oxgu6gbSo-126" value="&lt;font style=&quot;font-size: 9px;&quot;&gt;date_evaluation&amp;nbsp;&lt;/font&gt;" style="text;html=1;align=left;verticalAlign=middle;whiteSpace=wrap;rounded=0;" vertex="1" parent="SB-FFFIjVD-oxgu6gbSo-124">
          <mxGeometry y="50" width="90" height="20" as="geometry" />
        </mxCell>
        <mxCell id="SB-FFFIjVD-oxgu6gbSo-127" value="criteres" style="text;html=1;align=left;verticalAlign=middle;whiteSpace=wrap;rounded=0;fontSize=9;" vertex="1" parent="SB-FFFIjVD-oxgu6gbSo-124">
          <mxGeometry y="70" width="90" height="20" as="geometry" />
        </mxCell>
        <mxCell id="SB-FFFIjVD-oxgu6gbSo-128" value="&lt;font size=&quot;1&quot;&gt;appartient&lt;/font&gt;" style="ellipse;whiteSpace=wrap;html=1;labelBackgroundColor=none;" vertex="1" parent="WIyWlLk6GJQsqaUBKTNV-1">
          <mxGeometry x="205" y="320" width="60" height="40" as="geometry" />
        </mxCell>
        <mxCell id="SB-FFFIjVD-oxgu6gbSo-129" value="&lt;font size=&quot;1&quot;&gt;prend&lt;/font&gt;" style="ellipse;whiteSpace=wrap;html=1;labelBackgroundColor=none;" vertex="1" parent="WIyWlLk6GJQsqaUBKTNV-1">
          <mxGeometry x="330" y="370" width="60" height="40" as="geometry" />
        </mxCell>
        <mxCell id="SB-FFFIjVD-oxgu6gbSo-130" value="&lt;font style=&quot;font-size: 9px;&quot;&gt;Use Case&lt;/font&gt;" style="ellipse;whiteSpace=wrap;html=1;labelBackgroundColor=none;" vertex="1" parent="WIyWlLk6GJQsqaUBKTNV-1">
          <mxGeometry x="520" y="140" width="60" height="40" as="geometry" />
        </mxCell>
        <mxCell id="SB-FFFIjVD-oxgu6gbSo-131" value="&lt;font size=&quot;1&quot;&gt;avoir&lt;/font&gt;" style="ellipse;whiteSpace=wrap;html=1;labelBackgroundColor=none;" vertex="1" parent="WIyWlLk6GJQsqaUBKTNV-1">
          <mxGeometry x="470" y="320" width="60" height="40" as="geometry" />
        </mxCell>
        <mxCell id="SB-FFFIjVD-oxgu6gbSo-132" value="&lt;font size=&quot;1&quot;&gt;recoit&lt;/font&gt;" style="ellipse;whiteSpace=wrap;html=1;labelBackgroundColor=none;" vertex="1" parent="WIyWlLk6GJQsqaUBKTNV-1">
          <mxGeometry x="150" y="140" width="70" height="40" as="geometry" />
        </mxCell>
        <mxCell id="SB-FFFIjVD-oxgu6gbSo-133" value="" style="endArrow=none;html=1;edgeStyle=orthogonalEdgeStyle;rounded=0;entryX=0.004;entryY=0.172;entryDx=0;entryDy=0;entryPerimeter=0;labelBackgroundColor=none;fontColor=default;" edge="1" parent="WIyWlLk6GJQsqaUBKTNV-1" source="SB-FFFIjVD-oxgu6gbSo-132" target="SB-FFFIjVD-oxgu6gbSo-94">
          <mxGeometry relative="1" as="geometry">
            <mxPoint x="210" y="230" as="sourcePoint" />
            <mxPoint x="370" y="230" as="targetPoint" />
          </mxGeometry>
        </mxCell>
        <mxCell id="SB-FFFIjVD-oxgu6gbSo-134" value="1,N" style="text;html=1;align=center;verticalAlign=middle;resizable=0;points=[];autosize=1;strokeColor=none;fillColor=none;labelBackgroundColor=none;" vertex="1" parent="WIyWlLk6GJQsqaUBKTNV-1">
          <mxGeometry x="265" y="130" width="40" height="30" as="geometry" />
        </mxCell>
        <mxCell id="SB-FFFIjVD-oxgu6gbSo-135" value="" style="endArrow=none;html=1;rounded=0;exitX=0.415;exitY=0.002;exitDx=0;exitDy=0;exitPerimeter=0;entryX=0;entryY=1;entryDx=0;entryDy=0;labelBackgroundColor=none;fontColor=default;" edge="1" parent="WIyWlLk6GJQsqaUBKTNV-1" source="SB-FFFIjVD-oxgu6gbSo-101" target="SB-FFFIjVD-oxgu6gbSo-132">
          <mxGeometry width="50" height="50" relative="1" as="geometry">
            <mxPoint x="80" y="210" as="sourcePoint" />
            <mxPoint x="130" y="160" as="targetPoint" />
          </mxGeometry>
        </mxCell>
        <mxCell id="SB-FFFIjVD-oxgu6gbSo-136" value="1,1" style="text;html=1;align=center;verticalAlign=middle;whiteSpace=wrap;rounded=0;labelBackgroundColor=none;" vertex="1" parent="WIyWlLk6GJQsqaUBKTNV-1">
          <mxGeometry x="50" y="196" width="60" height="30" as="geometry" />
        </mxCell>
        <mxCell id="SB-FFFIjVD-oxgu6gbSo-137" value="" style="endArrow=none;html=1;rounded=0;entryX=0;entryY=0.5;entryDx=0;entryDy=0;exitX=0.5;exitY=0;exitDx=0;exitDy=0;labelBackgroundColor=none;fontColor=default;" edge="1" parent="WIyWlLk6GJQsqaUBKTNV-1" source="SB-FFFIjVD-oxgu6gbSo-128" target="SB-FFFIjVD-oxgu6gbSo-97">
          <mxGeometry width="50" height="50" relative="1" as="geometry">
            <mxPoint x="250" y="320" as="sourcePoint" />
            <mxPoint x="290" y="260" as="targetPoint" />
          </mxGeometry>
        </mxCell>
        <mxCell id="SB-FFFIjVD-oxgu6gbSo-138" value="" style="endArrow=none;html=1;rounded=0;entryX=0.417;entryY=1;entryDx=0;entryDy=0;entryPerimeter=0;exitX=0.5;exitY=0;exitDx=0;exitDy=0;labelBackgroundColor=none;fontColor=default;" edge="1" parent="WIyWlLk6GJQsqaUBKTNV-1" source="SB-FFFIjVD-oxgu6gbSo-110" target="SB-FFFIjVD-oxgu6gbSo-128">
          <mxGeometry width="50" height="50" relative="1" as="geometry">
            <mxPoint x="190" y="420" as="sourcePoint" />
            <mxPoint x="240" y="370" as="targetPoint" />
          </mxGeometry>
        </mxCell>
        <mxCell id="SB-FFFIjVD-oxgu6gbSo-139" value="1,1" style="text;html=1;align=center;verticalAlign=middle;whiteSpace=wrap;rounded=0;labelBackgroundColor=none;" vertex="1" parent="WIyWlLk6GJQsqaUBKTNV-1">
          <mxGeometry x="255" y="213" width="60" height="30" as="geometry" />
        </mxCell>
        <mxCell id="SB-FFFIjVD-oxgu6gbSo-140" value="1,N" style="text;html=1;align=center;verticalAlign=middle;whiteSpace=wrap;rounded=0;labelBackgroundColor=none;" vertex="1" parent="WIyWlLk6GJQsqaUBKTNV-1">
          <mxGeometry x="145" y="431" width="60" height="30" as="geometry" />
        </mxCell>
        <mxCell id="SB-FFFIjVD-oxgu6gbSo-141" value="" style="endArrow=none;html=1;rounded=0;exitX=0.5;exitY=0;exitDx=0;exitDy=0;entryX=0.457;entryY=1.022;entryDx=0;entryDy=0;entryPerimeter=0;labelBackgroundColor=none;fontColor=default;" edge="1" parent="WIyWlLk6GJQsqaUBKTNV-1" source="SB-FFFIjVD-oxgu6gbSo-129">
          <mxGeometry width="50" height="50" relative="1" as="geometry">
            <mxPoint x="320" y="370" as="sourcePoint" />
            <mxPoint x="360.27" y="330.65999999999997" as="targetPoint" />
          </mxGeometry>
        </mxCell>
        <mxCell id="SB-FFFIjVD-oxgu6gbSo-142" value="" style="endArrow=none;html=1;rounded=0;exitX=0.5;exitY=0;exitDx=0;exitDy=0;entryX=0.5;entryY=1;entryDx=0;entryDy=0;labelBackgroundColor=none;fontColor=default;" edge="1" parent="WIyWlLk6GJQsqaUBKTNV-1" source="SB-FFFIjVD-oxgu6gbSo-114" target="SB-FFFIjVD-oxgu6gbSo-129">
          <mxGeometry width="50" height="50" relative="1" as="geometry">
            <mxPoint x="360" y="460" as="sourcePoint" />
            <mxPoint x="410" y="410" as="targetPoint" />
          </mxGeometry>
        </mxCell>
        <mxCell id="SB-FFFIjVD-oxgu6gbSo-143" value="1,N" style="text;html=1;align=center;verticalAlign=middle;whiteSpace=wrap;rounded=0;labelBackgroundColor=none;" vertex="1" parent="WIyWlLk6GJQsqaUBKTNV-1">
          <mxGeometry x="310" y="336" width="60" height="30" as="geometry" />
        </mxCell>
        <mxCell id="SB-FFFIjVD-oxgu6gbSo-144" value="1,1" style="text;html=1;align=center;verticalAlign=middle;whiteSpace=wrap;rounded=0;labelBackgroundColor=none;" vertex="1" parent="WIyWlLk6GJQsqaUBKTNV-1">
          <mxGeometry x="310" y="440" width="60" height="30" as="geometry" />
        </mxCell>
        <mxCell id="SB-FFFIjVD-oxgu6gbSo-145" value="" style="endArrow=none;html=1;rounded=0;exitX=1;exitY=0.5;exitDx=0;exitDy=0;entryX=0.5;entryY=0;entryDx=0;entryDy=0;labelBackgroundColor=none;fontColor=default;" edge="1" parent="WIyWlLk6GJQsqaUBKTNV-1" source="SB-FFFIjVD-oxgu6gbSo-97" target="SB-FFFIjVD-oxgu6gbSo-131">
          <mxGeometry width="50" height="50" relative="1" as="geometry">
            <mxPoint x="450" y="240" as="sourcePoint" />
            <mxPoint x="500" y="190" as="targetPoint" />
          </mxGeometry>
        </mxCell>
        <mxCell id="SB-FFFIjVD-oxgu6gbSo-146" value="" style="endArrow=none;html=1;rounded=0;entryX=0.5;entryY=1;entryDx=0;entryDy=0;exitX=0.5;exitY=0;exitDx=0;exitDy=0;labelBackgroundColor=none;fontColor=default;" edge="1" parent="WIyWlLk6GJQsqaUBKTNV-1" source="SB-FFFIjVD-oxgu6gbSo-120" target="SB-FFFIjVD-oxgu6gbSo-131">
          <mxGeometry width="50" height="50" relative="1" as="geometry">
            <mxPoint x="600" y="420" as="sourcePoint" />
            <mxPoint x="650" y="370" as="targetPoint" />
          </mxGeometry>
        </mxCell>
        <mxCell id="SB-FFFIjVD-oxgu6gbSo-147" value="" style="endArrow=none;html=1;rounded=0;entryX=0;entryY=0.5;entryDx=0;entryDy=0;labelBackgroundColor=none;fontColor=default;" edge="1" parent="WIyWlLk6GJQsqaUBKTNV-1" target="SB-FFFIjVD-oxgu6gbSo-130">
          <mxGeometry width="50" height="50" relative="1" as="geometry">
            <mxPoint x="421" y="160" as="sourcePoint" />
            <mxPoint x="500" y="90" as="targetPoint" />
          </mxGeometry>
        </mxCell>
        <mxCell id="SB-FFFIjVD-oxgu6gbSo-148" value="" style="endArrow=none;html=1;rounded=0;exitX=1;exitY=1;exitDx=0;exitDy=0;entryX=0.37;entryY=-0.005;entryDx=0;entryDy=0;entryPerimeter=0;labelBackgroundColor=none;fontColor=default;" edge="1" parent="WIyWlLk6GJQsqaUBKTNV-1" source="SB-FFFIjVD-oxgu6gbSo-130" target="SB-FFFIjVD-oxgu6gbSo-124">
          <mxGeometry width="50" height="50" relative="1" as="geometry">
            <mxPoint x="550" y="250" as="sourcePoint" />
            <mxPoint x="600" y="200" as="targetPoint" />
          </mxGeometry>
        </mxCell>
        <mxCell id="SB-FFFIjVD-oxgu6gbSo-149" value="1,N" style="text;html=1;align=center;verticalAlign=middle;whiteSpace=wrap;rounded=0;labelBackgroundColor=none;" vertex="1" parent="WIyWlLk6GJQsqaUBKTNV-1">
          <mxGeometry x="420" y="216" width="60" height="30" as="geometry" />
        </mxCell>
        <mxCell id="SB-FFFIjVD-oxgu6gbSo-150" value="1,1" style="text;html=1;align=center;verticalAlign=middle;whiteSpace=wrap;rounded=0;labelBackgroundColor=none;" vertex="1" parent="WIyWlLk6GJQsqaUBKTNV-1">
          <mxGeometry x="550" y="430" width="60" height="30" as="geometry" />
        </mxCell>
        <mxCell id="SB-FFFIjVD-oxgu6gbSo-151" value="Resultats&lt;div&gt;&lt;br&gt;&lt;div&gt;&lt;font&gt;commentaire&lt;/font&gt;&lt;/div&gt;&lt;/div&gt;&lt;div&gt;&lt;font&gt;&lt;br&gt;&lt;/font&gt;&lt;/div&gt;&lt;div&gt;&lt;font&gt;id_employe&lt;/font&gt;&lt;/div&gt;" style="text;html=1;align=left;verticalAlign=middle;whiteSpace=wrap;rounded=0;fontSize=9;" vertex="1" parent="WIyWlLk6GJQsqaUBKTNV-1">
          <mxGeometry x="590" y="330" width="90" height="30" as="geometry" />
        </mxCell>
        <mxCell id="SB-FFFIjVD-oxgu6gbSo-152" value="&lt;span style=&quot;font-size: 10px;&quot;&gt;recrutement&lt;/span&gt;" style="swimlane;whiteSpace=wrap;html=1;" vertex="1" parent="WIyWlLk6GJQsqaUBKTNV-1">
          <mxGeometry x="210" y="755" width="120" height="110" as="geometry" />
        </mxCell>
        <mxCell id="SB-FFFIjVD-oxgu6gbSo-153" value="id_recrcutement" style="text;align=left;verticalAlign=top;spacingLeft=4;spacingRight=4;overflow=hidden;rotatable=0;points=[[0,0.5],[1,0.5]];portConstraint=eastwest;fontSize=9;fontStyle=5;labelBackgroundColor=none;fontColor=#BD146E;" vertex="1" parent="SB-FFFIjVD-oxgu6gbSo-152">
          <mxGeometry y="20" width="120" height="20" as="geometry" />
        </mxCell>
        <mxCell id="SB-FFFIjVD-oxgu6gbSo-154" value="offre emploi" style="text;align=left;verticalAlign=top;spacingLeft=4;spacingRight=4;overflow=hidden;rotatable=0;points=[[0,0.5],[1,0.5]];portConstraint=eastwest;fontSize=9;fontStyle=0;labelBackgroundColor=none;fontColor=#000000;" vertex="1" parent="SB-FFFIjVD-oxgu6gbSo-152">
          <mxGeometry y="40" width="120" height="20" as="geometry" />
        </mxCell>
        <mxCell id="SB-FFFIjVD-oxgu6gbSo-155" value="Description" style="text;align=left;verticalAlign=top;spacingLeft=4;spacingRight=4;overflow=hidden;rotatable=0;points=[[0,0.5],[1,0.5]];portConstraint=eastwest;fontSize=9;fontStyle=0;labelBackgroundColor=none;fontColor=#000000;" vertex="1" parent="SB-FFFIjVD-oxgu6gbSo-152">
          <mxGeometry y="60" width="120" height="20" as="geometry" />
        </mxCell>
        <mxCell id="SB-FFFIjVD-oxgu6gbSo-156" value="Status" style="text;align=left;verticalAlign=top;spacingLeft=4;spacingRight=4;overflow=hidden;rotatable=0;points=[[0,0.5],[1,0.5]];portConstraint=eastwest;fontSize=9;fontStyle=0;labelBackgroundColor=none;fontColor=#000000;" vertex="1" parent="SB-FFFIjVD-oxgu6gbSo-152">
          <mxGeometry y="80" width="120" height="20" as="geometry" />
        </mxCell>
        <mxCell id="SB-FFFIjVD-oxgu6gbSo-157" value="&lt;span style=&quot;font-size: 10px;&quot;&gt;condidat&lt;/span&gt;" style="swimlane;whiteSpace=wrap;html=1;" vertex="1" parent="WIyWlLk6GJQsqaUBKTNV-1">
          <mxGeometry x="560" y="740" width="140" height="160" as="geometry" />
        </mxCell>
        <mxCell id="SB-FFFIjVD-oxgu6gbSo-158" value="id_condidat" style="text;align=left;verticalAlign=top;spacingLeft=4;spacingRight=4;overflow=hidden;rotatable=0;points=[[0,0.5],[1,0.5]];portConstraint=eastwest;fontSize=9;fontStyle=5;labelBackgroundColor=none;fontColor=#BD146E;" vertex="1" parent="SB-FFFIjVD-oxgu6gbSo-157">
          <mxGeometry y="30" width="120" height="20" as="geometry" />
        </mxCell>
        <mxCell id="SB-FFFIjVD-oxgu6gbSo-159" value="nom" style="text;align=left;verticalAlign=top;spacingLeft=4;spacingRight=4;overflow=hidden;rotatable=0;points=[[0,0.5],[1,0.5]];portConstraint=eastwest;fontSize=9;fontStyle=0;labelBackgroundColor=none;fontColor=#000000;" vertex="1" parent="SB-FFFIjVD-oxgu6gbSo-157">
          <mxGeometry y="50" width="120" height="20" as="geometry" />
        </mxCell>
        <mxCell id="SB-FFFIjVD-oxgu6gbSo-160" value="cv" style="text;align=left;verticalAlign=top;spacingLeft=4;spacingRight=4;overflow=hidden;rotatable=0;points=[[0,0.5],[1,0.5]];portConstraint=eastwest;fontSize=9;fontStyle=0;labelBackgroundColor=none;fontColor=#000000;" vertex="1" parent="SB-FFFIjVD-oxgu6gbSo-157">
          <mxGeometry y="110" width="140" height="20" as="geometry" />
        </mxCell>
        <mxCell id="SB-FFFIjVD-oxgu6gbSo-161" value="email" style="text;align=left;verticalAlign=top;spacingLeft=4;spacingRight=4;overflow=hidden;rotatable=0;points=[[0,0.5],[1,0.5]];portConstraint=eastwest;fontSize=9;fontStyle=0;labelBackgroundColor=none;fontColor=#000000;" vertex="1" parent="SB-FFFIjVD-oxgu6gbSo-157">
          <mxGeometry y="90" width="120" height="20" as="geometry" />
        </mxCell>
        <mxCell id="SB-FFFIjVD-oxgu6gbSo-162" value="prenom" style="text;align=left;verticalAlign=top;spacingLeft=4;spacingRight=4;overflow=hidden;rotatable=0;points=[[0,0.5],[1,0.5]];portConstraint=eastwest;fontSize=9;fontStyle=0;labelBackgroundColor=none;fontColor=#000000;" vertex="1" parent="SB-FFFIjVD-oxgu6gbSo-157">
          <mxGeometry y="70" width="120" height="20" as="geometry" />
        </mxCell>
        <mxCell id="SB-FFFIjVD-oxgu6gbSo-163" value="date_condidateur" style="text;align=left;verticalAlign=top;spacingLeft=4;spacingRight=4;overflow=hidden;rotatable=0;points=[[0,0.5],[1,0.5]];portConstraint=eastwest;fontSize=9;fontStyle=0;labelBackgroundColor=none;fontColor=#000000;" vertex="1" parent="SB-FFFIjVD-oxgu6gbSo-157">
          <mxGeometry y="130" width="140" height="20" as="geometry" />
        </mxCell>
        <mxCell id="SB-FFFIjVD-oxgu6gbSo-164" value="&lt;font size=&quot;1&quot;&gt;Associe&lt;/font&gt;" style="ellipse;whiteSpace=wrap;html=1;labelBackgroundColor=none;" vertex="1" parent="WIyWlLk6GJQsqaUBKTNV-1">
          <mxGeometry x="404" y="790" width="60" height="40" as="geometry" />
        </mxCell>
        <mxCell id="SB-FFFIjVD-oxgu6gbSo-165" value="" style="endArrow=none;html=1;rounded=0;exitX=1;exitY=0.5;exitDx=0;exitDy=0;entryX=0;entryY=0.5;entryDx=0;entryDy=0;" edge="1" parent="WIyWlLk6GJQsqaUBKTNV-1" source="SB-FFFIjVD-oxgu6gbSo-152" target="SB-FFFIjVD-oxgu6gbSo-164">
          <mxGeometry width="50" height="50" relative="1" as="geometry">
            <mxPoint x="360" y="790" as="sourcePoint" />
            <mxPoint x="410" y="740" as="targetPoint" />
          </mxGeometry>
        </mxCell>
        <mxCell id="SB-FFFIjVD-oxgu6gbSo-166" value="" style="endArrow=none;html=1;rounded=0;exitX=1;exitY=0.5;exitDx=0;exitDy=0;entryX=-0.024;entryY=-0.041;entryDx=0;entryDy=0;entryPerimeter=0;" edge="1" parent="WIyWlLk6GJQsqaUBKTNV-1" source="SB-FFFIjVD-oxgu6gbSo-164" target="SB-FFFIjVD-oxgu6gbSo-162">
          <mxGeometry width="50" height="50" relative="1" as="geometry">
            <mxPoint x="450" y="780" as="sourcePoint" />
            <mxPoint x="500" y="730" as="targetPoint" />
          </mxGeometry>
        </mxCell>
        <mxCell id="SB-FFFIjVD-oxgu6gbSo-167" value="1,1" style="text;html=1;align=center;verticalAlign=middle;whiteSpace=wrap;rounded=0;labelBackgroundColor=none;" vertex="1" parent="WIyWlLk6GJQsqaUBKTNV-1">
          <mxGeometry x="330" y="780" width="60" height="30" as="geometry" />
        </mxCell>
        <mxCell id="SB-FFFIjVD-oxgu6gbSo-168" value="1,N" style="text;html=1;align=center;verticalAlign=middle;whiteSpace=wrap;rounded=0;labelBackgroundColor=none;" vertex="1" parent="WIyWlLk6GJQsqaUBKTNV-1">
          <mxGeometry x="510" y="780" width="60" height="30" as="geometry" />
        </mxCell>
        <mxCell id="SB-FFFIjVD-oxgu6gbSo-169" value="" style="endArrow=none;html=1;rounded=0;" edge="1" parent="WIyWlLk6GJQsqaUBKTNV-1">
          <mxGeometry width="50" height="50" relative="1" as="geometry">
            <mxPoint x="210" y="60" as="sourcePoint" />
            <mxPoint x="710" y="60" as="targetPoint" />
          </mxGeometry>
        </mxCell>
        <mxCell id="SB-FFFIjVD-oxgu6gbSo-170" value="" style="endArrow=none;html=1;rounded=0;" edge="1" parent="WIyWlLk6GJQsqaUBKTNV-1">
          <mxGeometry width="50" height="50" relative="1" as="geometry">
            <mxPoint x="30" y="854" as="sourcePoint" />
            <mxPoint x="30" y="90" as="targetPoint" />
          </mxGeometry>
        </mxCell>
        <mxCell id="SB-FFFIjVD-oxgu6gbSo-171" value="&lt;span style=&quot;font-size: 10px;&quot;&gt;Utilisateur&lt;/span&gt;" style="swimlane;whiteSpace=wrap;html=1;" vertex="1" parent="WIyWlLk6GJQsqaUBKTNV-1">
          <mxGeometry x="560" y="980" width="140" height="160" as="geometry" />
        </mxCell>
        <mxCell id="SB-FFFIjVD-oxgu6gbSo-172" value="id_user" style="text;align=left;verticalAlign=top;spacingLeft=4;spacingRight=4;overflow=hidden;rotatable=0;points=[[0,0.5],[1,0.5]];portConstraint=eastwest;fontSize=9;fontStyle=5;labelBackgroundColor=none;fontColor=#BD146E;" vertex="1" parent="SB-FFFIjVD-oxgu6gbSo-171">
          <mxGeometry y="30" width="120" height="20" as="geometry" />
        </mxCell>
        <mxCell id="SB-FFFIjVD-oxgu6gbSo-173" value="email" style="text;align=left;verticalAlign=top;spacingLeft=4;spacingRight=4;overflow=hidden;rotatable=0;points=[[0,0.5],[1,0.5]];portConstraint=eastwest;fontSize=9;fontStyle=0;labelBackgroundColor=none;fontColor=#000000;" vertex="1" parent="SB-FFFIjVD-oxgu6gbSo-171">
          <mxGeometry y="50" width="120" height="20" as="geometry" />
        </mxCell>
        <mxCell id="SB-FFFIjVD-oxgu6gbSo-174" value="role" style="text;align=left;verticalAlign=top;spacingLeft=4;spacingRight=4;overflow=hidden;rotatable=0;points=[[0,0.5],[1,0.5]];portConstraint=eastwest;fontSize=9;fontStyle=0;labelBackgroundColor=none;fontColor=#000000;" vertex="1" parent="SB-FFFIjVD-oxgu6gbSo-171">
          <mxGeometry y="90" width="120" height="20" as="geometry" />
        </mxCell>
        <mxCell id="SB-FFFIjVD-oxgu6gbSo-175" value="mot_de_passe" style="text;align=left;verticalAlign=top;spacingLeft=4;spacingRight=4;overflow=hidden;rotatable=0;points=[[0,0.5],[1,0.5]];portConstraint=eastwest;fontSize=9;fontStyle=0;labelBackgroundColor=none;fontColor=#000000;" vertex="1" parent="SB-FFFIjVD-oxgu6gbSo-171">
          <mxGeometry y="70" width="120" height="20" as="geometry" />
        </mxCell>
        <mxCell id="SB-FFFIjVD-oxgu6gbSo-176" value="" style="endArrow=none;html=1;rounded=0;entryX=0.5;entryY=1;entryDx=0;entryDy=0;exitX=0.5;exitY=0;exitDx=0;exitDy=0;" edge="1" parent="WIyWlLk6GJQsqaUBKTNV-1" source="SB-FFFIjVD-oxgu6gbSo-171" target="SB-FFFIjVD-oxgu6gbSo-157">
          <mxGeometry width="50" height="50" relative="1" as="geometry">
            <mxPoint x="550" y="960" as="sourcePoint" />
            <mxPoint x="630" y="910" as="targetPoint" />
          </mxGeometry>
        </mxCell>
        <mxCell id="SB-FFFIjVD-oxgu6gbSo-177" value="&lt;font size=&quot;1&quot;&gt;Associe&lt;/font&gt;" style="ellipse;whiteSpace=wrap;html=1;labelBackgroundColor=none;" vertex="1" parent="WIyWlLk6GJQsqaUBKTNV-1">
          <mxGeometry x="600" y="910" width="60" height="50" as="geometry" />
        </mxCell>
        <mxCell id="SB-FFFIjVD-oxgu6gbSo-178" value="1,1" style="text;html=1;align=center;verticalAlign=middle;whiteSpace=wrap;rounded=0;labelBackgroundColor=none;" vertex="1" parent="WIyWlLk6GJQsqaUBKTNV-1">
          <mxGeometry x="630" y="950" width="60" height="30" as="geometry" />
        </mxCell>
        <mxCell id="SB-FFFIjVD-oxgu6gbSo-179" value="1,1" style="text;html=1;align=center;verticalAlign=middle;whiteSpace=wrap;rounded=0;labelBackgroundColor=none;" vertex="1" parent="WIyWlLk6GJQsqaUBKTNV-1">
          <mxGeometry x="630" y="890" width="60" height="40" as="geometry" />
        </mxCell>
        <mxCell id="SB-FFFIjVD-oxgu6gbSo-180" value="1,N" style="text;html=1;align=center;verticalAlign=middle;resizable=0;points=[];autosize=1;strokeColor=none;fillColor=none;labelBackgroundColor=none;" vertex="1" parent="WIyWlLk6GJQsqaUBKTNV-1">
          <mxGeometry x="424" y="130" width="40" height="30" as="geometry" />
        </mxCell>
        <mxCell id="SB-FFFIjVD-oxgu6gbSo-181" value="1,1" style="text;html=1;align=center;verticalAlign=middle;whiteSpace=wrap;rounded=0;labelBackgroundColor=none;" vertex="1" parent="WIyWlLk6GJQsqaUBKTNV-1">
          <mxGeometry x="620" y="196" width="60" height="27" as="geometry" />
        </mxCell>
      </root>
    </mxGraphModel>
  </diagram>
</mxfile>
